<svg viewBox="0 0 50 50" xmlns="http://www.w3.org/2000/svg"><g fill="#fff"><path d="m30.82 35.91a31.14 31.14 0 0 1 -1.4 9.2 8.74 8.74 0 0 1 -2.19 3.75c-1.29 1.2-2.35 1.21-3.64 0a9.86 9.86 0 0 1 -2.49-4.86 37.28 37.28 0 0 1 -1.1-10.44 5.41 5.41 0 0 1 10.81-.28c.07.87.01 1.72.01 2.63z"/><path d="m20 21.23a5.49 5.49 0 1 1 5.46 5.44 5.48 5.48 0 0 1 -5.46-5.44z"/><path d="m47.93 20.3c-1.14-11.63-11.63-20.57-23.57-20.05a22.44 22.44 0 0 0 -21.24 22.41c0 11.85 8.8 19.6 15.41 21.26-.21-1-.38-2-.52-3a3.21 3.21 0 0 0 -1.16-.92 19.24 19.24 0 1 1 16.69.45 2 2 0 0 0 -.68.34c-.14 1.11-.33 2.2-.56 3.29 7.63-1.94 16.9-10.7 15.63-23.78z"/><path d="m39.72 19.5a14.83 14.83 0 0 0 -29 .77c-1.3 7.06 3 13.21 6.8 15-.05-1.24-.06-2.49 0-3.73a1.69 1.69 0 0 0 -.22-.26 11.84 11.84 0 0 1 -3.6-7.88c-.51-7.43 6.77-13.7 14-12a11.25 11.25 0 0 1 8.92 8.17 11.28 11.28 0 0 1 -3.22 11.86.36.36 0 0 1 -.09.08v3 .82c4.43-2.43 8.06-8.94 6.41-15.83z"/></g></svg>