<?xml version="1.0" standalone="no"?>
<!DOCTYPE svg PUBLIC "-//W3C//DTD SVG 20010904//EN"
 "http://www.w3.org/TR/2001/REC-SVG-20010904/DTD/svg10.dtd">
<svg version="1.0" xmlns="http://www.w3.org/2000/svg"
 width="500.000000pt" height="500.000000pt" viewBox="0 0 500.000000 500.000000"
 preserveAspectRatio="xMidYMid meet">

<g transform="translate(0.000000,500.000000) scale(0.100000,-0.100000)"
fill="#000000" stroke="none">
<path d="M0 3693 c1 -894 4 -1302 11 -1290 12 20 42 23 56 5 6 -7 13 -49 17
-93 6 -84 14 -102 41 -91 14 5 16 18 14 84 -4 83 2 102 31 102 28 0 40 -30 40
-97 0 -66 9 -87 36 -81 17 3 19 13 19 97 0 86 2 94 21 101 11 5 26 5 32 1 13
-8 36 -250 26 -275 -4 -10 -33 -16 -107 -20 -56 -4 -122 -9 -147 -12 -25 -2
-50 -1 -57 4 -7 4 -15 57 -21 132 -6 86 -10 -246 -11 -1067 l-1 -1193 2500 0
2500 0 0 2500 0 2500 -2500 0 -2500 0 0 -1307z m2392 1212 c18 -39 -1 -51 -94
-59 -46 -4 -87 -11 -92 -16 -6 -6 -6 -40 0 -87 l9 -78 100 0 100 0 0 -30 0
-30 -95 -12 c-164 -21 -188 -5 -203 141 -12 104 -5 134 35 160 19 12 110 27
211 35 10 0 22 -10 29 -24z m271 19 l77 -7 0 -33 c0 -33 -1 -34 -40 -34 -24 0
-42 -5 -44 -12 -3 -7 -8 -62 -13 -123 l-8 -110 -40 0 -40 0 4 113 c4 124 -3
142 -50 142 -33 0 -43 13 -35 46 6 22 11 24 60 24 29 0 87 -3 129 -6z m341
-63 c13 -12 26 -33 29 -47 5 -28 -20 -179 -34 -206 -36 -67 -178 -53 -209 21
-22 53 14 218 53 247 33 23 129 15 161 -15z m-986 7 c17 -17 15 -46 -5 -56
-10 -5 -50 -17 -90 -27 -42 -10 -74 -23 -77 -32 -14 -36 19 -42 98 -18 67 20
85 19 95 -7 12 -33 -1 -44 -77 -63 -74 -18 -93 -30 -85 -51 7 -18 34 -18 114
3 78 20 102 14 97 -24 -3 -27 -8 -29 -132 -61 -76 -20 -132 -30 -138 -24 -12
12 -80 270 -76 290 2 12 36 26 118 49 131 36 142 37 158 21z m1282 -71 c87
-29 95 -34 98 -60 5 -41 -20 -44 -112 -14 -71 24 -82 25 -95 12 -21 -20 -5
-34 67 -60 47 -17 60 -26 75 -57 15 -31 17 -44 7 -72 -25 -77 -70 -87 -200
-43 -87 29 -95 34 -98 60 -5 41 20 44 112 14 71 -24 82 -25 95 -12 21 21 2 37
-67 60 -86 28 -112 93 -66 163 15 24 47 41 74 40 8 0 58 -14 110 -31z m-1608
-101 l30 -69 -29 -23 -28 -22 22 -61 22 -61 -22 -15 c-39 -27 -55 -19 -85 43
-26 55 -28 57 -62 54 -36 -3 -36 -2 -63 63 -34 82 -34 90 2 105 37 15 46 10
70 -45 35 -80 77 -50 46 32 -17 45 -17 47 1 60 40 29 65 13 96 -61z m-318 -80
c27 -11 44 -32 81 -100 40 -73 46 -92 41 -122 -14 -70 -126 -119 -183 -79 -30
21 -104 158 -105 194 -1 42 27 80 75 102 51 23 49 22 91 5z m2418 -48 c91 -54
108 -79 73 -108 -12 -10 -29 -4 -95 35 -66 39 -83 45 -95 35 -23 -19 -19 -27
28 -57 76 -49 87 -62 87 -111 0 -56 -41 -102 -91 -102 -34 0 -204 93 -213 117
-3 6 3 22 13 34 l18 23 82 -48 c67 -39 84 -46 96 -36 24 20 18 28 -38 64 -29
19 -58 40 -63 47 -47 59 4 159 80 159 18 0 65 -21 118 -52z m-2647 -124 c27
-29 32 -53 14 -71 -7 -7 -9 -19 -5 -28 4 -12 14 -14 39 -10 31 6 37 3 66 -37
37 -50 36 -63 -2 -86 l-28 -17 -35 43 c-20 23 -40 42 -46 42 -16 0 -78 -49
-78 -62 0 -6 10 -25 23 -42 13 -17 27 -36 31 -43 9 -15 -28 -53 -52 -53 -22 0
-195 223 -190 245 2 8 41 44 88 80 98 75 134 83 175 39z m2895 -49 c87 -64 77
-128 -38 -253 -43 -46 -80 -54 -130 -28 -106 55 -99 134 24 263 49 52 91 57
144 18z m-3164 -199 c48 -48 46 -81 -11 -147 -25 -29 -45 -57 -45 -62 0 -5 16
-27 35 -48 19 -22 35 -43 35 -47 0 -13 -48 -55 -58 -51 -18 7 -222 207 -222
218 0 6 35 47 78 91 70 73 81 80 116 80 30 0 45 -7 72 -34z m3380 9 c37 -24
136 -143 132 -161 -2 -9 -11 -22 -20 -28 -15 -9 -29 0 -88 59 -65 64 -71 68
-86 53 -15 -15 -13 -21 30 -73 55 -68 60 -107 21 -153 -32 -38 -74 -48 -113
-28 -39 20 -152 144 -152 167 0 10 10 23 21 30 19 10 29 4 90 -57 64 -63 70
-67 85 -52 15 15 13 21 -30 73 -50 62 -59 102 -30 144 33 47 90 57 140 26z
m277 -324 c37 -52 67 -101 67 -110 0 -9 -10 -22 -22 -30 -19 -12 -24 -10 -50
18 l-30 32 -29 -18 c-16 -10 -61 -40 -100 -68 l-71 -50 -24 28 c-13 16 -24 32
-24 37 0 5 43 40 95 77 52 37 95 72 95 78 0 6 -7 20 -15 31 -8 10 -15 25 -15
33 0 16 30 42 45 37 6 -1 40 -44 78 -95z m-1013 52 c95 -44 153 -100 197 -191
37 -73 38 -80 38 -181 0 -94 -3 -112 -27 -164 -34 -71 -118 -161 -181 -193
-83 -42 -174 -58 -257 -44 -188 32 -318 171 -344 370 -18 130 59 287 179 370
113 78 272 91 395 33z m-1349 -76 c102 -45 181 -149 199 -261 23 -144 -63
-301 -199 -365 -47 -21 -70 -26 -141 -25 -73 0 -93 4 -143 29 -162 80 -238
265 -176 432 37 99 145 191 249 214 57 13 153 2 211 -24z m-1579 -89 c142 -88
135 -81 118 -113 -19 -36 -36 -41 -70 -21 -35 20 -56 20 -64 1 -5 -15 4 -27
49 -59 19 -14 19 -17 5 -43 -9 -15 -23 -29 -32 -31 -17 -3 -168 87 -208 125
-33 31 -33 85 0 135 49 74 90 75 202 6z m4070 -92 c7 -7 38 -64 68 -125 53
-109 54 -113 36 -127 -11 -8 -26 -14 -33 -14 -7 0 -31 36 -53 80 -30 60 -45
80 -60 80 -34 0 -33 -25 5 -100 29 -57 34 -75 24 -86 -25 -31 -48 -15 -90 61
-22 41 -42 75 -44 75 -15 0 -35 -15 -35 -26 0 -8 16 -46 35 -84 19 -38 35 -77
35 -85 0 -21 -41 -37 -56 -22 -24 24 -126 239 -118 247 11 10 257 140 266 140
4 0 13 -6 20 -14z m-4412 -95 c-14 -36 -17 -37 -42 -14 -22 20 -23 32 -2 62
l16 23 21 -20 c18 -18 19 -24 7 -51z m189 -56 c71 -35 132 -69 136 -74 7 -13
-22 -71 -35 -71 -16 0 -268 128 -275 139 -7 13 22 71 35 71 6 0 68 -29 139
-65z m-133 -110 c23 -10 35 -21 34 -32 -4 -34 0 -43 20 -43 10 0 23 8 29 17 8
16 14 16 58 5 64 -17 77 -31 64 -66 -14 -36 -29 -39 -80 -21 -51 18 -64 11
-81 -41 -14 -42 -10 -48 45 -70 35 -13 45 -22 45 -40 0 -36 -11 -54 -31 -54
-26 0 -260 89 -277 105 -20 19 63 225 98 242 32 16 33 16 76 -2z m4546 -150
c43 -125 46 -119 -79 -158 -78 -25 -109 -39 -111 -52 -8 -36 14 -37 112 -6 53
17 105 31 115 31 21 0 44 -49 32 -69 -9 -14 -259 -93 -285 -89 -28 4 -85 174
-65 193 8 7 57 27 109 43 96 31 125 51 103 73 -9 9 -38 4 -124 -22 -108 -33
-111 -33 -125 -14 -8 10 -14 29 -14 41 0 21 15 28 138 68 75 24 144 43 152 43
9 -1 25 -32 42 -82z m-4591 -206 c105 -24 129 -46 129 -116 0 -78 -36 -123
-100 -123 -58 0 -170 31 -198 55 -23 20 -27 31 -26 74 1 56 23 97 65 118 31
16 27 17 130 -8z m4687 -181 l3 -36 -53 -11 c-145 -29 -239 -43 -253 -38 -9 4
-15 19 -15 41 0 40 -9 36 140 65 52 11 113 19 135 18 38 -2 40 -3 43 -39z
m-2073 -63 c253 -66 408 -319 354 -577 -27 -129 -137 -271 -254 -329 -96 -47
-193 -63 -292 -49 -229 33 -395 211 -418 447 -17 173 85 368 240 458 105 61
250 81 370 50z m-2787 -34 c11 -6 12 -28 7 -99 -7 -81 -6 -92 9 -98 26 -10 35
5 44 76 7 51 15 68 36 87 37 32 95 31 133 -1 28 -24 28 -26 25 -125 -3 -114
-13 -151 -40 -151 -36 0 -42 19 -35 118 l6 94 -24 -4 c-21 -3 -25 -11 -35 -73
-9 -54 -17 -74 -38 -92 -47 -40 -124 -26 -151 26 -13 26 -14 47 -6 131 5 54
12 104 16 110 7 12 35 13 53 1z m4880 -23 c5 -7 13 -63 17 -125 7 -111 7 -112
-18 -137 -36 -36 -84 -35 -112 1 -24 29 -41 25 -55 -13 -8 -19 -17 -24 -44
-24 -76 0 -91 25 -100 172 -9 126 -24 113 154 127 63 4 122 9 131 10 9 0 21
-5 27 -11z m-3368 -49 c168 -38 301 -227 287 -407 -8 -107 -40 -177 -116 -253
-89 -89 -150 -113 -282 -114 -90 0 -99 2 -171 38 -87 43 -142 98 -185 186 -26
51 -28 66 -28 171 0 107 2 119 29 173 56 109 181 200 300 216 55 8 96 5 166
-10z m-753 -103 c-16 -18 -40 3 -25 22 8 9 14 9 24 1 10 -8 10 -14 1 -23z
m3502 -2 c-8 -10 -14 -11 -24 -1 -19 17 2 42 21 26 11 -9 11 -15 3 -25z
m-3636 -63 c7 -8 25 -20 42 -27 l30 -12 -26 -10 c-34 -14 -69 -58 -70 -91 -1
-20 -2 -21 -6 -6 -10 48 -27 75 -54 87 -31 14 -38 28 -15 28 22 0 66 58 67 88
1 24 2 24 11 -8 5 -19 15 -41 21 -49z m3495 20 c7 -16 26 -35 43 -44 l30 -14
-35 -21 c-20 -12 -38 -32 -42 -46 -3 -15 -10 -26 -14 -26 -4 0 -11 11 -14 26
-4 14 -22 34 -42 46 l-35 21 32 15 c18 9 37 29 43 44 13 35 18 35 34 -1z m232
-151 c6 0 3 -11 -7 -24 l-18 -23 -21 20 -21 20 21 21 c19 19 22 20 28 4 4 -10
12 -18 18 -18z m-3513 -26 l-21 -22 -16 21 c-15 18 -15 22 -1 37 15 15 18 15
37 1 l21 -16 -20 -21z m4056 6 c5 -4 7 -23 5 -41 l-3 -34 -116 0 c-65 0 -120
-3 -124 -7 -3 -3 -9 -28 -13 -55 -7 -45 -9 -48 -37 -48 l-30 0 0 85 c1 132
-10 124 163 116 81 -4 151 -11 155 -16z m-159 -255 c72 -14 134 -29 140 -35 7
-7 2 -52 -14 -136 -26 -134 -41 -161 -77 -138 -20 13 -20 12 -2 117 13 80 8
104 -23 92 -10 -4 -20 -30 -28 -73 -15 -82 -25 -102 -49 -102 -36 0 -40 21
-25 104 11 57 12 82 4 90 -21 21 -44 -9 -57 -75 -22 -109 -22 -109 -47 -109
-43 0 -46 17 -21 143 13 65 26 124 29 132 7 20 19 19 170 -10z m-1208 -45 c14
0 24 -23 24 -56 0 -21 3 -24 25 -18 67 17 109 -34 66 -80 -20 -21 -21 -27 -10
-72 7 -27 23 -78 37 -114 41 -109 54 -208 55 -420 1 -107 -2 -216 -7 -242 l-7
-48 -207 0 -207 0 -165 64 -165 65 -3 -65 -3 -64 -714 0 -715 0 0 65 0 65 713
0 c657 1 709 2 677 17 -19 8 -70 19 -113 23 -69 6 -82 11 -111 39 l-33 32 -52
-21 c-63 -24 -84 -25 -79 -4 4 21 152 114 181 114 12 0 51 -9 87 -21 48 -15
121 -24 280 -35 118 -7 221 -12 228 -9 8 3 12 28 12 79 0 128 37 249 100 328
32 39 40 90 18 105 -7 4 -29 13 -48 18 l-35 11 0 60 c0 38 -5 67 -14 78 -13
15 -10 20 22 47 21 17 37 39 37 49 0 10 4 30 10 44 l9 26 48 -30 c26 -17 52
-30 59 -30z m-3285 -10 c28 -16 44 -55 65 -158 16 -81 17 -94 4 -103 -8 -5
-24 -8 -35 -7 -16 3 -23 19 -40 93 -17 76 -24 90 -42 93 -26 4 -35 -18 -22
-60 17 -59 11 -112 -14 -136 -45 -42 -126 -38 -155 8 -7 11 -22 63 -33 115
-23 104 -18 129 25 123 17 -2 25 -17 41 -87 21 -86 43 -117 66 -94 9 9 9 23 0
57 -15 62 -14 97 5 124 27 39 93 54 135 32z m4303 -253 c18 -13 17 -17 -10
-100 -21 -65 -25 -90 -17 -98 20 -20 40 -2 57 49 30 90 100 123 163 75 50 -36
51 -62 13 -176 -32 -94 -37 -102 -63 -105 -41 -5 -43 19 -11 114 25 73 27 86
14 94 -24 15 -33 7 -58 -56 -28 -72 -52 -94 -102 -94 -56 0 -100 39 -100 89 0
30 47 182 66 213 8 12 28 10 48 -5z m-4194 -66 c19 -37 12 -59 -25 -72 -38
-14 -48 -28 -35 -50 7 -11 17 -11 50 -2 48 12 70 -1 70 -43 0 -27 -22 -40
-162 -88 -73 -25 -80 -25 -113 -12 -67 29 -96 145 -46 190 20 18 205 93 233
95 10 1 22 -8 28 -18z m1438 -169 c6 -15 13 -35 16 -45 6 -17 8 -17 37 7 17
14 37 26 45 26 16 0 19 -45 5 -82 -8 -22 -7 -23 28 -20 20 1 43 -2 51 -8 13
-9 9 -16 -22 -45 l-38 -35 -153 0 -154 0 -39 35 c-33 29 -37 36 -24 45 8 6 32
9 53 8 31 -3 36 -1 31 12 -4 8 -9 32 -12 53 -5 47 13 49 63 6 l35 -31 0 28 c0
16 9 44 20 62 23 38 40 33 58 -16z m-1001 -645 c-8 -12 -26 -30 -40 -41 -25
-18 -27 -18 -52 -2 -26 17 -28 17 -55 -9 -28 -26 -50 -27 -50 -1 0 7 32 44 71
81 l71 69 35 -38 c32 -34 33 -39 20 -59z m3360 50 c16 -18 37 -36 46 -40 9 -3
24 -18 33 -32 16 -25 16 -27 -2 -52 -40 -53 -47 -52 -121 17 -37 35 -70 67
-72 72 -5 14 50 68 70 68 9 0 30 -15 46 -33z m-155 -120 c-20 -21 -21 -25 -7
-37 13 -11 19 -10 35 5 16 15 22 16 35 5 14 -12 13 -15 -5 -35 -18 -20 -19
-23 -5 -35 13 -11 19 -10 35 5 15 14 23 16 32 7 15 -15 5 -36 -30 -61 l-30
-21 -66 71 c-36 39 -66 75 -66 80 0 5 15 22 33 39 28 25 34 27 46 15 13 -13
12 -18 -7 -38z m-3108 22 c35 -28 33 -59 -8 -102 -19 -20 -45 -51 -59 -69 -22
-27 -28 -30 -41 -19 -14 12 -13 17 11 47 35 46 18 66 -21 25 -26 -28 -56 -32
-56 -9 0 14 122 146 136 147 6 1 23 -8 38 -20z m3027 -116 c18 -25 40 -68 50
-94 16 -41 16 -49 4 -59 -8 -7 -22 -10 -30 -6 -10 3 -15 0 -15 -11 0 -9 -8
-21 -17 -28 -23 -17 -70 12 -128 78 -39 45 -43 53 -30 66 13 13 21 8 70 -45
50 -52 54 -55 39 -24 -9 19 -28 49 -41 67 -23 30 -24 53 -2 53 6 0 32 -24 59
-52 59 -64 64 -52 11 24 -34 48 -36 56 -22 66 9 6 17 11 18 11 1 1 16 -20 34
-46z m-2893 -3 c31 -29 28 -44 -24 -110 -54 -69 -70 -77 -104 -52 -40 30 -37
55 15 122 51 66 76 75 113 40z m128 -91 c37 -22 40 -29 23 -46 -9 -9 -17 -8
-34 3 -20 13 -24 13 -36 -2 -11 -14 -10 -18 11 -34 20 -15 22 -21 11 -34 -12
-14 -15 -14 -36 0 -22 15 -24 14 -47 -19 -20 -30 -26 -33 -40 -23 -16 12 -12
20 39 94 31 45 61 82 66 82 5 0 25 -9 43 -21z m119 -76 c19 -9 35 -23 35 -30
0 -20 -28 -27 -46 -12 -13 10 -17 10 -25 -2 -13 -21 -11 -27 11 -39 22 -12 24
-18 11 -39 -7 -11 -13 -10 -34 4 -24 16 -26 15 -37 -4 -9 -18 -7 -23 15 -33
28 -13 31 -21 11 -37 -11 -9 -22 -7 -50 10 -21 12 -36 27 -34 33 5 21 93 166
100 166 4 0 23 -8 43 -17z m2341 -1 c5 -4 27 -35 48 -70 43 -71 43 -101 0
-121 -40 -18 -60 -6 -98 64 -43 77 -45 99 -8 119 31 17 42 19 58 8z m-2198
-78 c30 -21 27 -69 -3 -69 -13 0 -20 7 -20 19 0 11 -6 21 -14 24 -11 4 -12 -2
-7 -23 30 -121 8 -167 -64 -130 -30 16 -39 45 -22 73 13 20 44 3 37 -19 -5
-14 -1 -19 10 -19 14 0 16 6 11 28 -18 76 -18 99 -1 115 21 21 44 22 73 1z
m2045 -79 c35 -70 39 -75 58 -64 21 11 38 0 39 -24 0 -7 -60 -37 -75 -37 -2 0
-25 41 -51 91 -36 72 -43 94 -32 100 21 14 22 13 61 -66z m-1892 15 c25 -14
24 -37 -7 -115 -29 -72 -50 -90 -86 -76 -49 19 -53 35 -23 108 15 38 31 74 37
81 13 15 52 16 79 2z m1761 -77 c27 -64 33 -71 56 -70 42 3 39 -26 -4 -42 -20
-7 -40 -9 -44 -5 -5 5 -24 47 -43 94 -26 61 -32 87 -24 92 21 13 28 4 59 -69z
m-1599 8 c18 -18 18 -21 -8 -102 -32 -96 -35 -101 -54 -89 -12 7 -13 15 -4 44
17 56 -9 67 -27 11 -8 -24 -18 -35 -31 -35 -10 0 -19 6 -19 13 0 11 33 115 55
176 7 18 64 7 88 -18z m1471 23 c8 -3 27 -42 42 -87 l27 -81 -23 -18 c-14 -12
-35 -18 -53 -16 -27 3 -33 10 -53 63 -30 79 -31 119 -1 133 26 13 40 14 61 6z
m-146 -56 c5 -7 13 -29 17 -48 4 -19 13 -54 21 -78 18 -56 18 -62 -6 -62 -14
0 -22 10 -28 32 -5 20 -16 34 -27 36 -14 3 -16 0 -11 -14 4 -11 10 -31 13 -46
5 -23 2 -28 -15 -28 -16 0 -24 9 -31 38 -45 172 -45 166 -6 175 37 9 63 7 73
-5z m-158 -47 c5 -11 10 -35 10 -53 0 -19 4 -38 9 -43 5 -6 11 -26 15 -46 6
-31 3 -37 -14 -42 -16 -4 -21 1 -26 21 -10 46 -13 52 -28 52 -11 0 -12 -8 -5
-37 5 -26 4 -40 -4 -45 -23 -14 -31 -1 -44 68 -7 38 -15 83 -18 101 -6 34 2
40 62 42 22 1 35 -5 43 -18z m-177 -13 c11 -9 20 -38 27 -88 13 -104 13 -110
-9 -110 -14 0 -20 10 -25 40 -4 26 -12 40 -21 40 -12 0 -13 -9 -8 -45 5 -41 4
-45 -15 -45 -21 0 -21 2 -38 136 -6 46 -4 53 17 68 28 19 49 20 72 4z m-469
-14 c13 -12 15 -29 10 -87 -9 -100 -15 -109 -72 -105 l-47 3 2 50 c2 28 6 74
9 103 l5 52 39 0 c22 0 45 -7 54 -16z m166 -14 c0 -16 -7 -20 -30 -20 -23 0
-30 -5 -30 -19 0 -13 9 -20 30 -24 21 -5 30 -12 30 -27 0 -16 -7 -20 -30 -20
-23 0 -30 -4 -30 -20 0 -16 7 -20 30 -20 23 0 30 -4 30 -20 0 -17 -7 -20 -50
-20 l-50 0 0 98 c0 54 3 102 7 105 3 4 26 7 50 7 36 0 43 -3 43 -20z m148 8
c20 -20 15 -58 -8 -58 -11 0 -20 7 -20 15 0 8 -7 15 -15 15 -23 0 -19 -9 25
-56 22 -24 40 -52 40 -63 0 -49 -75 -70 -104 -29 -23 32 -20 48 9 48 16 0 25
-6 25 -15 0 -16 15 -20 24 -7 3 5 -13 26 -34 47 -60 59 -52 115 15 115 17 0
36 -5 43 -12z m-580 -33 c1 -1 0 -10 -4 -19 -5 -14 -14 -16 -48 -11 -52 9 -55
11 -49 34 4 16 10 17 51 8 26 -5 48 -10 50 -12z"/>
<path d="M2903 4808 c-14 -18 -37 -144 -28 -157 8 -15 32 -14 41 1 17 26 33
143 22 155 -13 16 -23 16 -35 1z"/>
<path d="M1295 4529 c-10 -15 67 -143 88 -147 32 -6 29 27 -8 93 -35 63 -63
82 -80 54z"/>
<path d="M1022 4351 c-33 -31 -35 -61 -3 -61 28 1 83 53 75 73 -9 25 -35 21
-72 -12z"/>
<path d="M3930 4279 c-27 -33 -50 -63 -50 -68 0 -9 22 -31 31 -31 14 0 99 112
99 130 0 41 -30 29 -80 -31z"/>
<path d="M757 4112 c-30 -31 -35 -57 -13 -65 17 -7 76 53 76 76 0 26 -33 20
-63 -11z"/>
<path d="M2030 3624 c0 -69 -4 -75 -48 -98 -48 -25 -33 -30 18 -7 l43 19 -2
69 c-3 85 -11 97 -11 17z"/>
<path d="M453 3713 c-12 -30 64 -71 81 -44 10 15 -4 38 -30 50 -34 15 -43 14
-51 -6z"/>
<path d="M236 3288 c-15 -37 -15 -43 -2 -56 20 -20 41 -4 56 44 13 38 7 54
-20 54 -12 0 -23 -14 -34 -42z"/>
<path d="M150 2980 c-12 -7 -12 -14 -4 -27 14 -23 149 -52 164 -37 21 21 -1
41 -58 53 -31 7 -64 14 -72 16 -8 3 -22 0 -30 -5z"/>
<path d="M2630 2146 c0 -13 6 -27 13 -29 10 -4 10 -6 0 -6 -7 -1 -13 -12 -13
-25 0 -13 6 -27 13 -29 10 -4 10 -6 0 -6 -7 -1 -13 -12 -13 -26 l0 -25 120 0
c98 0 122 3 126 15 4 8 1 21 -5 28 -8 10 -7 17 1 25 10 10 10 17 1 31 -8 13
-8 22 -1 29 6 6 8 18 5 26 -5 13 -27 16 -127 16 l-120 0 0 -24z"/>
<path d="M4862 2618 c3 -47 6 -53 26 -56 22 -3 23 -1 20 50 -3 47 -6 53 -26
56 -22 3 -23 1 -20 -50z"/>
<path d="M4737 2653 c-10 -9 -8 -75 2 -91 12 -19 45 -11 49 12 7 36 -8 86 -27
86 -10 0 -21 -3 -24 -7z"/>
<path d="M1488 2503 c28 -2 76 -2 105 0 28 2 5 3 -53 3 -58 0 -81 -1 -52 -3z"/>
<path d="M1603 2433 c9 -2 23 -2 30 0 6 3 -1 5 -18 5 -16 0 -22 -2 -12 -5z"/>
<path d="M1393 2403 c32 -2 81 -2 110 0 29 2 3 3 -58 3 -60 0 -84 -1 -52 -3z"/>
<path d="M1603 2373 c9 -2 23 -2 30 0 6 3 -1 5 -18 5 -16 0 -22 -2 -12 -5z"/>
<path d="M1393 2343 c32 -2 81 -2 110 0 29 2 3 3 -58 3 -60 0 -84 -1 -52 -3z"/>
<path d="M1603 2313 c9 -2 23 -2 30 0 6 3 -1 5 -18 5 -16 0 -22 -2 -12 -5z"/>
<path d="M1388 2273 c28 -2 76 -2 105 0 28 2 5 3 -53 3 -58 0 -81 -1 -52 -3z"/>
<path d="M1603 2243 c9 -2 23 -2 30 0 6 3 -1 5 -18 5 -16 0 -22 -2 -12 -5z"/>
<path d="M1393 2213 c32 -2 81 -2 110 0 29 2 3 3 -58 3 -60 0 -84 -1 -52 -3z"/>
<path d="M1393 2153 c32 -2 81 -2 110 0 29 2 3 3 -58 3 -60 0 -84 -1 -52 -3z"/>
<path d="M249 1621 c-22 -18 -23 -21 -8 -36 13 -14 20 -14 45 -3 34 15 44 26
37 45 -7 19 -47 16 -74 -6z"/>
<path d="M803 965 c-3 -9 -3 -19 1 -22 8 -9 37 18 30 28 -8 14 -24 11 -31 -6z"/>
<path d="M4175 971 c-3 -6 3 -15 14 -21 21 -11 37 2 26 20 -8 13 -32 13 -40 1z"/>
<path d="M4245 921 c-10 -17 15 -45 29 -31 7 7 5 15 -6 26 -11 11 -18 13 -23
5z"/>
<path d="M926 853 c-4 -9 -3 -20 2 -25 11 -11 36 17 27 32 -9 15 -22 12 -29
-7z"/>
<path d="M1027 714 c-40 -51 -45 -64 -24 -64 13 0 80 81 79 96 -1 23 -22 10
-55 -32z"/>
<path d="M3651 563 c23 -54 64 -111 75 -106 12 4 9 16 -14 57 -16 28 -37 53
-47 54 -9 2 -16 0 -14 -5z"/>
<path d="M1581 391 c-24 -57 -26 -71 -8 -71 12 0 50 82 49 105 -1 27 -22 10
-41 -34z"/>
<path d="M1757 373 c-13 -12 -7 -33 8 -33 8 0 15 9 15 20 0 20 -11 26 -23 13z"/>
<path d="M3244 377 c-6 -17 29 -110 45 -115 15 -5 14 16 -5 71 -17 51 -31 66
-40 44z"/>
<path d="M3086 331 c-8 -13 4 -43 16 -39 5 2 9 7 9 11 -1 4 -1 14 -1 22 0 17
-16 20 -24 6z"/>
<path d="M2922 278 c2 -13 8 -23 13 -23 6 0 11 10 13 23 2 15 -2 22 -13 22
-11 0 -15 -7 -13 -22z"/>
<path d="M2762 272 c-7 -5 -10 -16 -6 -25 9 -25 24 -20 24 8 0 28 0 28 -18 17z"/>
<path d="M2276 248 c-12 -46 -7 -108 9 -108 12 0 15 13 15 55 0 30 0 58 1 62
2 19 -19 11 -25 -9z"/>
</g>
</svg>
